<svg width="24" height="24" viewBox="0 0 24 24" fill="none" xmlns="http://www.w3.org/2000/svg">
<rect x="1" y="1.00293" width="22" height="22" rx="11" stroke="white" stroke-opacity="0.7" stroke-width="2"/>
<path d="M7.29708 7.35449V14.5029H6.39376V8.48242L4.57247 9.14648V8.33105L7.15548 7.35449H7.29708ZM14.4358 12.5791C14.4358 13.012 14.3348 13.3799 14.133 13.6826C13.9344 13.9821 13.6643 14.21 13.3225 14.3662C12.9839 14.5225 12.6014 14.6006 12.175 14.6006C11.7486 14.6006 11.3645 14.5225 11.0227 14.3662C10.6809 14.21 10.4107 13.9821 10.2121 13.6826C10.0136 13.3799 9.91427 13.012 9.91427 12.5791C9.91427 12.2959 9.96798 12.0371 10.0754 11.8027C10.1861 11.5651 10.3407 11.3584 10.5393 11.1826C10.7411 11.0068 10.9787 10.8717 11.2522 10.7773C11.5289 10.6797 11.8332 10.6309 12.1652 10.6309C12.6014 10.6309 12.9904 10.7155 13.3322 10.8848C13.674 11.0508 13.9426 11.2803 14.1379 11.5732C14.3365 11.8662 14.4358 12.2015 14.4358 12.5791ZM13.5275 12.5596C13.5275 12.2959 13.4706 12.0632 13.3567 11.8613C13.2427 11.6562 13.0832 11.4967 12.8781 11.3828C12.6731 11.2689 12.4354 11.2119 12.1652 11.2119C11.8886 11.2119 11.6493 11.2689 11.4475 11.3828C11.2489 11.4967 11.0943 11.6562 10.9836 11.8613C10.8729 12.0632 10.8176 12.2959 10.8176 12.5596C10.8176 12.833 10.8713 13.0674 10.9787 13.2627C11.0894 13.4548 11.2456 13.6029 11.4475 13.707C11.6525 13.8079 11.8951 13.8584 12.175 13.8584C12.455 13.8584 12.6958 13.8079 12.8977 13.707C13.0995 13.6029 13.2541 13.4548 13.3615 13.2627C13.4722 13.0674 13.5275 12.833 13.5275 12.5596ZM14.2697 9.24414C14.2697 9.58919 14.1786 9.90007 13.9963 10.1768C13.814 10.4535 13.565 10.6715 13.2492 10.8311C12.9335 10.9906 12.5754 11.0703 12.175 11.0703C11.7681 11.0703 11.4052 10.9906 11.0861 10.8311C10.7704 10.6715 10.523 10.4535 10.344 10.1768C10.1649 9.90007 10.0754 9.58919 10.0754 9.24414C10.0754 8.83073 10.1649 8.47917 10.344 8.18945C10.5262 7.89974 10.7753 7.67839 11.091 7.52539C11.4068 7.3724 11.7665 7.2959 12.1701 7.2959C12.577 7.2959 12.9384 7.3724 13.2541 7.52539C13.5699 7.67839 13.8173 7.89974 13.9963 8.18945C14.1786 8.47917 14.2697 8.83073 14.2697 9.24414ZM13.3664 9.25879C13.3664 9.02116 13.316 8.8112 13.215 8.62891C13.1141 8.44661 12.9742 8.30339 12.7951 8.19922C12.6161 8.0918 12.4078 8.03809 12.1701 8.03809C11.9325 8.03809 11.7242 8.08854 11.5451 8.18945C11.3693 8.28711 11.231 8.42708 11.1301 8.60938C11.0324 8.79167 10.9836 9.00814 10.9836 9.25879C10.9836 9.50293 11.0324 9.71615 11.1301 9.89844C11.231 10.0807 11.371 10.2223 11.55 10.3232C11.729 10.4242 11.9374 10.4746 12.175 10.4746C12.4126 10.4746 12.6193 10.4242 12.7951 10.3232C12.9742 10.2223 13.1141 10.0807 13.215 9.89844C13.316 9.71615 13.3664 9.50293 13.3664 9.25879ZM20.2414 10.6895V11.5391H15.3684V10.6895H20.2414ZM18.259 8.61426V13.79H17.3557V8.61426H18.259Z" fill="white" fill-opacity="0.7"/>
</svg>
