<svg width="14" height="13" viewBox="0 0 14 13" fill="none" xmlns="http://www.w3.org/2000/svg">
<path d="M0.936569 5.48337C2.01209 5.00941 3.13774 4.52178 4.31352 4.02048C5.48019 3.51918 6.57166 3.05433 7.58794 2.62595C8.60421 2.19756 9.47693 1.83298 10.2061 1.5322C10.9353 1.2223 11.3956 1.0309 11.587 0.95798C12.5987 0.53871 13.2777 0.397433 13.6241 0.534152C13.9704 0.670871 14.0707 1.20407 13.9249 2.13376C13.861 2.46189 13.779 2.96319 13.6788 3.63767C13.5785 4.30303 13.4646 5.03903 13.337 5.84568C13.2094 6.65232 13.0772 7.47946 12.9405 8.32712C12.8038 9.16566 12.6716 9.93129 12.544 10.624C12.3982 11.4352 12.1543 11.9114 11.8125 12.0527C11.4707 12.194 11.031 12.0869 10.4932 11.7314C10.3656 11.6494 10.1286 11.4944 9.78227 11.2666C9.43592 11.0387 9.06906 10.7949 8.68169 10.5351C8.29432 10.2754 7.9229 10.027 7.56743 9.79001C7.21196 9.55303 6.96587 9.38441 6.82915 9.28415C6.57394 9.10186 6.3438 8.88539 6.13872 8.63474C5.93364 8.38409 6.05441 8.04001 6.50102 7.60251C6.57394 7.52959 6.74712 7.36098 7.02055 7.09665C7.30311 6.83233 7.63351 6.51788 8.01176 6.15329C8.39002 5.78871 8.7979 5.39678 9.2354 4.97751C9.6729 4.55824 10.0922 4.1572 10.4932 3.77439C10.6026 3.67413 10.6117 3.56703 10.5206 3.4531C10.4294 3.33916 10.3246 3.32321 10.2061 3.40525C9.65923 3.76071 9.08045 4.14353 8.46977 4.55368C7.84998 4.96384 7.27348 5.34665 6.74028 5.70212C6.20708 6.05759 5.74451 6.36293 5.35258 6.61814C4.96066 6.88246 4.71912 7.04652 4.62798 7.11032C4.33631 7.31084 4.03097 7.44528 3.71196 7.51364C3.39295 7.582 2.98279 7.54327 2.48149 7.39743C2.10779 7.28806 1.7546 7.1764 1.42192 7.06247C1.08924 6.94854 0.849981 6.86879 0.704147 6.82321C0.148158 6.63181 -0.0865427 6.41762 4.58863e-05 6.18064C0.0866344 5.94366 0.398809 5.71124 0.936569 5.48337Z" fill="white"/>
</svg>
