<svg width="32" height="33" viewBox="0 0 32 33" fill="none" xmlns="http://www.w3.org/2000/svg">
<path d="M16 0C11.7242 0 7.70444 1.66507 4.68106 4.68845C-1.56032 10.9297 -1.56032 21.0851 4.68086 27.3265C7.70424 30.3499 11.7242 32.015 16 32.015C20.2757 32.015 24.2956 30.3499 27.319 27.3265C33.5603 21.0851 33.5603 10.9297 27.319 4.68845C24.2956 1.66507 20.2757 0 16 0ZM23.203 23.2104C22.9187 23.4946 22.5464 23.6367 22.174 23.6367C21.8016 23.6367 21.4291 23.4946 21.1451 23.2104L16 18.0655L10.855 23.2105C10.5708 23.4947 10.1984 23.6368 9.82597 23.6368C9.45362 23.6368 9.08108 23.4947 8.79712 23.2105C8.22871 22.6423 8.22871 21.7208 8.79712 21.1525L13.942 16.0075L8.79702 10.8625C8.22861 10.2943 8.22861 9.37283 8.79702 8.80452C9.36524 8.2363 10.2867 8.2363 10.855 8.80452L16 13.9495L21.1448 8.80452C21.713 8.2363 22.6345 8.2363 23.2028 8.80452C23.7712 9.37274 23.7712 10.2942 23.2028 10.8625L18.058 16.0075L23.203 21.1524C23.7713 21.7207 23.7713 22.6422 23.203 23.2104Z" fill="url(#paint0_linear_1_824)"/>
<defs>
<linearGradient id="paint0_linear_1_824" x1="16" y1="0" x2="16" y2="32.015" gradientUnits="userSpaceOnUse">
<stop stop-color="#B355FF"/>
<stop offset="1" stop-color="#762CB2"/>
</linearGradient>
</defs>
</svg>
