<svg width="14" height="14" viewBox="0 0 14 14" fill="none" xmlns="http://www.w3.org/2000/svg">
<path d="M7 1.56152C7.9388 1.56152 8.55176 1.5638 8.83887 1.56836C9.12598 1.57292 9.45638 1.58431 9.83008 1.60254C10.1673 1.61165 10.4362 1.64128 10.6367 1.69141C10.8372 1.74154 11.0013 1.78939 11.1289 1.83496C11.293 1.89876 11.4365 1.97168 11.5596 2.05371C11.6826 2.13574 11.8079 2.236 11.9355 2.35449C12.054 2.4821 12.1543 2.60742 12.2363 2.73047C12.3184 2.85352 12.3913 2.99707 12.4551 3.16113C12.5007 3.28874 12.5485 3.4528 12.5986 3.65332C12.6488 3.85384 12.6829 4.12272 12.7012 4.45996C12.7103 4.83366 12.7194 5.16406 12.7285 5.45117C12.7376 5.73828 12.7422 6.35124 12.7422 7.29004C12.7422 8.21973 12.7376 8.8304 12.7285 9.12207C12.7194 9.41374 12.7103 9.74642 12.7012 10.1201C12.6829 10.4574 12.6488 10.7262 12.5986 10.9268C12.5485 11.1273 12.5007 11.2913 12.4551 11.4189C12.3913 11.583 12.3184 11.7266 12.2363 11.8496C12.1543 11.9727 12.054 12.098 11.9355 12.2256C11.8079 12.3441 11.6826 12.4443 11.5596 12.5264C11.4365 12.6084 11.293 12.6813 11.1289 12.7451C11.0013 12.7907 10.8372 12.8385 10.6367 12.8887C10.4362 12.9388 10.1673 12.973 9.83008 12.9912C9.45638 13.0003 9.12598 13.0094 8.83887 13.0186C8.55176 13.0277 7.9388 13.0322 7 13.0322C6.07031 13.0322 5.45964 13.0277 5.16797 13.0186C4.8763 13.0094 4.54362 13.0003 4.16992 12.9912C3.83268 12.973 3.5638 12.9388 3.36328 12.8887C3.16276 12.8385 2.9987 12.7907 2.87109 12.7451C2.71615 12.6813 2.57487 12.6084 2.44727 12.5264C2.31966 12.4443 2.19661 12.3441 2.07812 12.2256C1.95052 12.098 1.8457 11.9727 1.76367 11.8496C1.68164 11.7266 1.60872 11.583 1.54492 11.4189C1.49935 11.2913 1.4515 11.1273 1.40137 10.9268C1.35124 10.7262 1.32161 10.4574 1.3125 10.1201C1.29427 9.74642 1.28288 9.41602 1.27832 9.12891C1.27376 8.8418 1.27148 8.22884 1.27148 7.29004C1.27148 6.36035 1.27376 5.74967 1.27832 5.45801C1.28288 5.16634 1.29427 4.83366 1.3125 4.45996C1.32161 4.12272 1.35124 3.85384 1.40137 3.65332C1.4515 3.4528 1.49935 3.28874 1.54492 3.16113C1.60872 2.99707 1.68164 2.85352 1.76367 2.73047C1.8457 2.60742 1.94596 2.48665 2.06445 2.36816C2.19206 2.24056 2.31738 2.13574 2.44043 2.05371C2.56348 1.97168 2.70703 1.89876 2.87109 1.83496C2.9987 1.78939 3.16276 1.74154 3.36328 1.69141C3.5638 1.64128 3.83268 1.61165 4.16992 1.60254C4.54362 1.58431 4.87402 1.57292 5.16113 1.56836C5.44824 1.5638 6.0612 1.56152 7 1.56152ZM7 0.290039C6.05208 0.290039 5.42773 0.294597 5.12695 0.303711C4.82617 0.312825 4.48893 0.32194 4.11523 0.331055C3.74154 0.349284 3.42025 0.388021 3.15137 0.447266C2.88249 0.506511 2.63867 0.577148 2.41992 0.65918C2.18294 0.750325 1.96419 0.8597 1.76367 0.987305C1.56315 1.11491 1.36719 1.27441 1.17578 1.46582C0.984375 1.66634 0.82487 1.86686 0.697266 2.06738C0.569661 2.2679 0.460286 2.4821 0.369141 2.70996C0.277995 2.92871 0.205078 3.17253 0.150391 3.44141C0.0957031 3.71029 0.0592448 4.03158 0.0410156 4.40527C0.0227865 4.77897 0.0113932 5.11621 0.00683594 5.41699C0.00227865 5.71777 0 6.34212 0 7.29004C0 8.24707 0.00227865 8.8737 0.00683594 9.16992C0.0113932 9.46615 0.0227865 9.80111 0.0410156 10.1748C0.0592448 10.5485 0.0957031 10.8698 0.150391 11.1387C0.205078 11.4076 0.277995 11.6559 0.369141 11.8838C0.460286 12.1117 0.569661 12.3258 0.697266 12.5264C0.82487 12.7269 0.984375 12.9229 1.17578 13.1143C1.36719 13.3148 1.56315 13.4788 1.76367 13.6064C1.96419 13.734 2.18294 13.8389 2.41992 13.9209C2.63867 14.012 2.88249 14.085 3.15137 14.1396C3.42025 14.1943 3.74154 14.2308 4.11523 14.249C4.48893 14.2673 4.82617 14.2786 5.12695 14.2832C5.42773 14.2878 6.05208 14.29 7 14.29C7.94792 14.29 8.57227 14.2878 8.87305 14.2832C9.17383 14.2786 9.51107 14.2673 9.88477 14.249C10.2585 14.2308 10.5798 14.1943 10.8486 14.1396C11.1175 14.085 11.3613 14.012 11.5801 13.9209C11.8079 13.8389 12.0221 13.734 12.2227 13.6064C12.4232 13.4788 12.6237 13.3148 12.8242 13.1143C13.0156 12.9229 13.1751 12.7269 13.3027 12.5264C13.4303 12.3258 13.5397 12.1117 13.6309 11.8838C13.7129 11.6559 13.7835 11.4076 13.8428 11.1387C13.902 10.8698 13.9362 10.5531 13.9453 10.1885C13.9635 9.81478 13.9749 9.47754 13.9795 9.17676C13.984 8.87598 13.9863 8.25163 13.9863 7.30371C13.9863 6.34668 13.984 5.71777 13.9795 5.41699C13.9749 5.11621 13.9635 4.78353 13.9453 4.41895C13.9362 4.04525 13.902 3.72396 13.8428 3.45508C13.7835 3.1862 13.7129 2.93783 13.6309 2.70996C13.5397 2.4821 13.4303 2.2679 13.3027 2.06738C13.1751 1.86686 13.0156 1.66634 12.8242 1.46582C12.6328 1.27441 12.4368 1.11491 12.2363 0.987305C12.0358 0.8597 11.8171 0.750325 11.5801 0.65918C11.3613 0.577148 11.1175 0.506511 10.8486 0.447266C10.5798 0.388021 10.2585 0.353841 9.88477 0.344727C9.51107 0.326497 9.17383 0.312825 8.87305 0.303711C8.57227 0.294597 7.94792 0.290039 7 0.290039ZM7 3.69434C6.50781 3.69434 6.04297 3.79004 5.60547 3.98145C5.16797 4.17285 4.78516 4.43034 4.45703 4.75391C4.12891 5.07747 3.8737 5.45801 3.69141 5.89551C3.5 6.33301 3.4043 6.79785 3.4043 7.29004C3.4043 7.79134 3.5 8.26074 3.69141 8.69824C3.8737 9.13574 4.12891 9.51628 4.45703 9.83984C4.78516 10.1634 5.16797 10.4209 5.60547 10.6123C6.04297 10.7946 6.50781 10.8857 7 10.8857C7.49219 10.8857 7.95703 10.7946 8.39453 10.6123C8.83203 10.4209 9.21484 10.1634 9.54297 9.83984C9.87109 9.51628 10.1263 9.13574 10.3086 8.69824C10.5 8.26074 10.5957 7.79134 10.5957 7.29004C10.5957 6.79785 10.5 6.33301 10.3086 5.89551C10.1263 5.45801 9.87109 5.07747 9.54297 4.75391C9.21484 4.43034 8.83203 4.17285 8.39453 3.98145C7.95703 3.79004 7.49219 3.69434 7 3.69434ZM7 9.62793C6.35286 9.62793 5.80143 9.40006 5.3457 8.94434C4.88997 8.48861 4.66211 7.93717 4.66211 7.29004C4.66211 6.65202 4.88997 6.10514 5.3457 5.64941C5.80143 5.19368 6.35286 4.96582 7 4.96582C7.64714 4.96582 8.19857 5.19368 8.6543 5.64941C9.11003 6.10514 9.33789 6.65202 9.33789 7.29004C9.33789 7.93717 9.11003 8.48861 8.6543 8.94434C8.19857 9.40006 7.64714 9.62793 7 9.62793ZM11.5801 3.55762C11.5801 3.78548 11.498 3.98145 11.334 4.14551C11.1699 4.30957 10.9694 4.3916 10.7324 4.3916C10.5046 4.3916 10.3086 4.30957 10.1445 4.14551C9.98047 3.98145 9.89844 3.78548 9.89844 3.55762C9.89844 3.32975 9.98047 3.13379 10.1445 2.96973C10.3086 2.80566 10.5046 2.72363 10.7324 2.72363C10.9694 2.72363 11.1699 2.80566 11.334 2.96973C11.498 3.13379 11.5801 3.32975 11.5801 3.55762Z" fill="white"/>
</svg>
