<svg width="104" height="25" viewBox="0 0 104 25" fill="none" xmlns="http://www.w3.org/2000/svg">
<path fill-rule="evenodd" clip-rule="evenodd" d="M9.06977 17.5827C8.26795 17.5827 7.49897 17.2666 6.932 16.704C6.36503 16.1414 6.04651 15.3784 6.04651 14.5827V0.782715H0V14.5827C0 19.5531 4.06084 23.5827 9.06977 23.5827H15.7209V17.5827H9.06977ZM27.2093 6.78271C26.4947 6.78271 25.787 6.92239 25.1268 7.19377C24.4666 7.46514 23.8666 7.8629 23.3613 8.36434C22.856 8.86578 22.4552 9.46107 22.1817 10.1162C21.9082 10.7714 21.7674 11.4736 21.7674 12.1827C21.7674 12.8919 21.9082 13.594 22.1817 14.2492C22.4552 14.9044 22.856 15.4997 23.3613 16.0011C23.8666 16.5025 24.4666 16.9003 25.1268 17.1717C25.787 17.443 26.4947 17.5827 27.2093 17.5827C28.6526 17.5827 30.0367 17.0138 31.0573 16.0011C32.0778 14.9884 32.6512 13.6149 32.6512 12.1827C32.6512 10.7505 32.0778 9.37704 31.0573 8.36434C30.0367 7.35164 28.6526 6.78271 27.2093 6.78271ZM15.7209 12.1827C15.7209 5.88692 20.8647 0.782715 27.2093 0.782715C33.5539 0.782715 38.6977 5.88692 38.6977 12.1827C38.6977 18.4785 33.5539 23.5827 27.2093 23.5827C20.8647 23.5827 15.7209 18.4785 15.7209 12.1827ZM92.5116 6.78271C91.0684 6.78271 89.6842 7.35164 88.6636 8.36434C87.6431 9.37704 87.0698 10.7505 87.0698 12.1827C87.0698 13.6149 87.6431 14.9884 88.6636 16.0011C89.6842 17.0138 91.0684 17.5827 92.5116 17.5827C93.9549 17.5827 95.3391 17.0138 96.3596 16.0011C97.3801 14.9884 97.9535 13.6149 97.9535 12.1827C97.9535 10.7505 97.3801 9.37704 96.3596 8.36434C95.3391 7.35164 93.9549 6.78271 92.5116 6.78271ZM81.0233 12.1827C81.0233 5.88692 86.167 0.782715 92.5116 0.782715C98.8562 0.782715 104 5.88692 104 12.1827C104 18.4785 98.8562 23.5827 92.5116 23.5827C86.167 23.5827 81.0233 18.4785 81.0233 12.1827ZM51.3953 0.782715C45.0507 0.782715 39.907 5.88692 39.907 12.1827C39.907 18.4785 45.0507 23.5827 51.3953 23.5827H68.3256C69.5161 23.5827 70.6644 23.4027 71.7443 23.0691L74.9767 24.7827L78.4644 18.3003C79.3503 16.6501 79.8138 14.8091 79.8139 12.9393V12.1827C79.8139 5.88692 74.6702 0.782715 68.3256 0.782715H51.3953ZM73.7674 12.1827C73.7674 10.7505 73.1941 9.37704 72.1736 8.36434C71.153 7.35164 69.7688 6.78271 68.3256 6.78271H51.3953C50.6807 6.78271 49.9731 6.92239 49.3128 7.19377C48.6526 7.46514 48.0527 7.8629 47.5474 8.36434C47.042 8.86578 46.6412 9.46107 46.3677 10.1162C46.0942 10.7714 45.9535 11.4736 45.9535 12.1827C45.9535 12.8919 46.0942 13.594 46.3677 14.2492C46.6412 14.9044 47.042 15.4997 47.5474 16.0011C48.0527 16.5025 48.6526 16.9003 49.3128 17.1717C49.9731 17.443 50.6807 17.5827 51.3953 17.5827H68.3256C69.7615 17.5828 71.1393 17.0196 72.1587 16.016C73.178 15.0123 73.7563 13.6496 73.7674 12.2247V12.1827Z" fill="url(#paint0_linear_1_509)"/>
<defs>
<linearGradient id="paint0_linear_1_509" x1="52" y1="0.782715" x2="52" y2="24.7827" gradientUnits="userSpaceOnUse">
<stop stop-color="#B355FF"/>
<stop offset="1" stop-color="#762CB2"/>
</linearGradient>
</defs>
</svg>
