<svg width="25" height="24" viewBox="0 0 25 24" fill="none" xmlns="http://www.w3.org/2000/svg">
<path d="M9.84698 0.703125C9.8001 0.734375 9.65166 0.765625 9.40166 0.796875C9.15166 0.828125 8.87823 0.851562 8.58135 0.867188C7.87823 0.914062 7.17901 1.0625 6.4837 1.3125C5.78838 1.5625 5.12823 1.89844 4.50323 2.32031C4.2376 2.50781 3.97588 2.71094 3.71807 2.92969C3.46026 3.14844 3.27666 3.32031 3.16729 3.44531C2.93291 3.74219 2.63604 4.18359 2.27666 4.76953C1.91729 5.35547 1.7376 5.6875 1.7376 5.76562C1.7376 5.79688 1.71807 5.87891 1.67901 6.01172C1.63994 6.14453 1.59698 6.28906 1.5501 6.44531C1.34698 7.03906 1.19073 7.82031 1.08135 8.78906C0.987601 9.77344 0.932914 10.8164 0.917289 11.918C0.901664 13.0195 0.940726 14.125 1.03448 15.2344C1.12823 16.3281 1.26885 17.2891 1.45635 18.1172C1.62823 18.8828 1.95244 19.6602 2.42901 20.4492C2.90557 21.2383 3.41729 21.8359 3.96416 22.2422C4.12041 22.3672 4.28838 22.5 4.46807 22.6406C4.64776 22.7812 4.78448 22.8828 4.87823 22.9453C5.19073 23.1953 5.58135 23.4141 6.0501 23.6016C6.51885 23.7734 7.07354 23.9219 7.71416 24.0469C8.35479 24.1719 9.08135 24.2656 9.89385 24.3281C10.6907 24.375 11.5814 24.4062 12.5657 24.4219C13.8782 24.4219 15.0267 24.375 16.011 24.2812C16.9798 24.2031 17.8353 24.0664 18.5774 23.8711C19.3196 23.6758 19.972 23.4141 20.5345 23.0859C21.097 22.7578 21.6204 22.3594 22.1048 21.8906C22.4329 21.5469 22.7024 21.2305 22.9134 20.9414C23.1243 20.6523 23.3548 20.2656 23.6048 19.7812C24.011 18.9531 24.2728 18.1758 24.3899 17.4492C24.5071 16.7227 24.5892 15.3438 24.636 13.3125C24.6673 11.9688 24.6712 10.9727 24.6478 10.3242C24.6243 9.67578 24.5735 9.02344 24.4954 8.36719C24.4017 7.63281 24.3001 7.07031 24.1907 6.67969C24.0814 6.28906 23.886 5.75781 23.6048 5.08594C23.4173 4.67969 23.1087 4.22266 22.679 3.71484C22.2493 3.20703 21.7845 2.77344 21.2845 2.41406C20.597 1.88281 19.8587 1.49219 19.0696 1.24219C18.2806 0.992188 17.2532 0.820312 15.9876 0.726562C15.472 0.679688 14.8782 0.648438 14.2064 0.632812C13.5345 0.601562 12.886 0.585938 12.261 0.585938C11.636 0.585938 11.097 0.59375 10.6439 0.609375C10.1907 0.625 9.9251 0.65625 9.84698 0.703125ZM15.847 4.89844C16.2064 5.16406 16.3392 5.48438 16.2454 5.85938C16.1517 6.23438 15.8001 6.84375 15.1907 7.6875C14.1751 9.0625 13.5931 9.86719 13.4446 10.1016C13.2962 10.3359 13.261 10.5 13.3392 10.5938C13.386 10.625 13.5501 10.6602 13.8314 10.6992C14.1126 10.7383 14.4329 10.7656 14.7923 10.7812C15.5735 10.8281 16.304 10.8945 16.9837 10.9805C17.6634 11.0664 18.1282 11.1562 18.3782 11.25C18.5657 11.3281 18.7337 11.4766 18.8821 11.6953C19.0306 11.9141 19.1048 12.1406 19.1048 12.375C19.1048 12.6094 18.9837 12.8789 18.7415 13.1836C18.4993 13.4883 18.0892 13.8906 17.511 14.3906C17.1985 14.6562 16.7767 15.0234 16.2454 15.4922C15.7142 15.9609 15.2298 16.3984 14.7923 16.8047C13.6517 17.8516 12.7767 18.6367 12.1673 19.1602C11.5579 19.6836 11.1751 19.9844 11.0189 20.0625C10.7532 20.2188 10.5032 20.2695 10.2689 20.2148C10.0345 20.1602 9.82354 20.0156 9.63604 19.7812C9.38604 19.4531 9.33916 19.1289 9.49541 18.8086C9.65166 18.4883 10.3079 17.5234 11.4642 15.9141C11.7142 15.5703 11.929 15.2539 12.1087 14.9648C12.2884 14.6758 12.3782 14.5078 12.3782 14.4609C12.3782 14.3828 12.3431 14.332 12.2728 14.3086C12.2024 14.2852 12.0814 14.2734 11.9095 14.2734C11.472 14.2734 10.7142 14.2227 9.63604 14.1211C8.55791 14.0195 7.89385 13.9375 7.64385 13.875C7.1126 13.7344 6.76885 13.4453 6.6126 13.0078C6.45635 12.5703 6.55791 12.1562 6.91729 11.7656C7.01104 11.6562 7.20245 11.4688 7.49151 11.2031C7.78057 10.9375 8.08135 10.6641 8.39385 10.3828C8.70635 10.1172 9.12432 9.74609 9.64776 9.26953C10.1712 8.79297 10.636 8.35938 11.0423 7.96875C12.5423 6.59375 13.554 5.70312 14.0774 5.29688C14.6009 4.89062 15.0345 4.67188 15.3782 4.64062C15.4095 4.64062 15.472 4.66406 15.5657 4.71094C15.6595 4.75781 15.7532 4.82031 15.847 4.89844Z" fill="url(#paint0_linear_1_423)"/>
<defs>
<linearGradient id="paint0_linear_1_423" x1="12.7884" y1="24.4219" x2="12.7884" y2="0.585938" gradientUnits="userSpaceOnUse">
<stop stop-color="#B355FF"/>
<stop offset="1" stop-color="#762CB2"/>
</linearGradient>
</defs>
</svg>
