<svg width="14" height="11" viewBox="0 0 14 11" fill="none" xmlns="http://www.w3.org/2000/svg">
<path d="M13.8633 2.50098C13.8633 2.50098 13.8223 2.32096 13.7402 1.96094C13.6582 1.60091 13.5124 1.31608 13.3027 1.10645C13.0384 0.823894 12.7718 0.657552 12.5029 0.607422C12.234 0.557292 12.0312 0.527669 11.8945 0.518555C11.4115 0.482097 10.8828 0.454753 10.3086 0.436523C9.73438 0.40918 9.20345 0.39095 8.71582 0.381836C8.22819 0.372722 7.82031 0.368164 7.49219 0.368164C7.16406 0.368164 7 0.368164 7 0.368164C7 0.368164 6.83594 0.368164 6.50781 0.368164C6.17969 0.368164 5.77181 0.372722 5.28418 0.381836C4.79655 0.39095 4.26562 0.40918 3.69141 0.436523C3.11719 0.454753 2.58854 0.482097 2.10547 0.518555C1.96875 0.527669 1.76595 0.557292 1.49707 0.607422C1.22819 0.657552 0.961589 0.823894 0.697266 1.10645C0.48763 1.31608 0.341797 1.60091 0.259766 1.96094C0.177734 2.32096 0.136719 2.50098 0.136719 2.50098C0.136719 2.50098 0.113932 2.73568 0.0683594 3.20508C0.0227865 3.67448 0 4.19173 0 4.75684V5.82324C0 6.38835 0.0227865 6.90788 0.0683594 7.38184C0.113932 7.85579 0.136719 8.09277 0.136719 8.09277C0.136719 8.09277 0.177734 8.27051 0.259766 8.62598C0.341797 8.98145 0.48763 9.264 0.697266 9.47363C0.961589 9.75618 1.24642 9.92025 1.55176 9.96582C1.8571 10.0114 2.08724 10.0479 2.24219 10.0752C2.52474 10.1025 2.93034 10.1253 3.45898 10.1436C3.98763 10.1618 4.514 10.1755 5.03809 10.1846C5.56217 10.1937 6.02018 10.2028 6.41211 10.2119C6.80404 10.2119 7 10.2119 7 10.2119C7 10.2119 7.16406 10.2119 7.49219 10.2119C7.82031 10.2119 8.22819 10.2074 8.71582 10.1982C9.20345 10.1891 9.73438 10.1755 10.3086 10.1572C10.8828 10.139 11.416 10.1117 11.9082 10.0752C12.0449 10.057 12.2454 10.0228 12.5098 9.97266C12.7741 9.92253 13.0384 9.75618 13.3027 9.47363C13.5124 9.264 13.6582 8.98145 13.7402 8.62598C13.8223 8.27051 13.8633 8.09277 13.8633 8.09277C13.8633 8.09277 13.8861 7.85579 13.9316 7.38184C13.9772 6.90788 14 6.38835 14 5.82324V4.75684C14 4.19173 13.9772 3.67448 13.9316 3.20508C13.8861 2.73568 13.8633 2.50098 13.8633 2.50098ZM5.55078 7.1084V3.1709L9.33789 5.15332L5.55078 7.1084Z" fill="white"/>
</svg>
